Coordinates
version=1
nRows=12
nColumns=34
inDegrees=yes

Units are S.I. units (second, meters, Newtons, ...)
If the header above contains a line with 'inDegrees', this indicates whether rotational values are in degrees (yes) or radians (no).

endheader
time	pelvis_tilt	pelvis_list	pelvis_rotation	pelvis_tx	pelvis_ty	pelvis_tz	hip_flexion_r	hip_adduction_r	hip_rotation_r	knee_angle_r	ankle_angle_r	subtalar_angle_r	mtp_angle_r	hip_flexion_l	hip_adduction_l	hip_rotation_l	knee_angle_l	ankle_angle_l	subtalar_angle_l	mtp_angle_l	lumbar_extension	lumbar_bending	lumbar_rotation	arm_flex_r	arm_add_r	arm_rot_r	elbow_flex_r	pro_sup_r	arm_flex_l	arm_add_l	arm_rot_l	elbow_flex_l	pro_sup_l
      1.25000000	    -10.72041010	      2.37659643	     -8.74227351	     -0.02719472	      1.23221881	     -0.07720429	      7.40590652	      0.78523454	      0.10932647	      3.54621351	     10.14961807	     -2.65547366	      0.00000000	      6.93585586	     -0.21383853	      4.36691475	      5.96794204	      9.27303689	     -4.40305653	      0.00000000	    -11.18677050	     -1.07084825	      2.03179594	    -18.70452821	    -20.87054283	      4.21061309	     21.37695292	     77.42876340	    -13.90588819	    -19.60936123	    -16.63921140	     32.15893210	     69.92083209
      1.26666670	    -11.24623779	      2.71561625	     -8.82047376	     -0.02968458	      1.22898711	     -0.07569970	      8.71695161	      0.57617766	      0.42856653	      4.42452523	     10.44458097	     -2.95430009	      0.00000000	      8.81909597	      0.10579075	      3.89883655	      8.19610998	      9.55080658	     -5.03806463	      0.00000000	    -12.40975208	     -1.51481135	      2.08215349	    -18.41208852	    -21.06081177	      4.34534809	     22.01152079	     77.25710701	    -13.50294596	    -19.95282852	    -16.46674804	     33.59775219	     69.97091603
      1.28333330	    -11.74039751	      3.08907895	     -8.85749492	     -0.03236471	      1.22958215	     -0.07650332	     10.34712235	      0.29722812	      0.76779312	      5.77074841	     10.83936811	     -3.37191695	      0.00000000	     11.14060851	      0.46212103	      3.02082414	     11.24665377	      9.73349052	     -5.97395815	      0.00000000	    -13.96183293	     -1.96510123	      1.94460975	    -17.78708837	    -21.12597630	      4.61780102	     22.46900734	     77.09669438	    -12.84876825	    -20.15854619	    -15.96916460	     34.95773900	     70.06220691
      1.30000000	    -12.25186666	      3.44635400	     -8.77862677	     -0.03311955	      1.22838777	     -0.07545593	     12.19806288	      0.00346530	      0.93526462	      7.54815947	     10.95696186	     -4.18979325	      0.00000000	     13.90178995	      0.74403439	      1.87816079	     14.96432193	      9.74654174	     -6.92095747	      0.00000000	    -15.71620358	     -2.38161540	      1.64042901	    -16.72593765	    -20.75433950	      5.36565998	     22.21372455	     76.81902007	    -12.06160338	    -20.42166995	    -14.86113360	     36.42681786	     70.21524542
      1.31666670	    -12.59626815	      3.68494476	     -8.70946513	     -0.03223497	      1.23143830	     -0.07554083	     14.03097556	     -0.20584601	      1.32393166	      9.72250540	     11.51618091	     -4.78150698	      0.00000000	     16.55535476	      0.87553034	      0.64379107	     18.73122687	     10.15593069	     -7.45644436	      0.00000000	    -17.75294517	     -2.66410666	      1.20622078	    -14.66112591	    -20.20327143	      6.67903208	     20.74338787	     76.39366965	    -10.73121850	    -20.40557734	    -13.35435574	     36.94110293	     70.30199541
      1.33333330	    -12.48608679	      3.78967881	     -8.52395884	     -0.03206051	      1.22475804	     -0.07403474	     15.43805814	     -0.36934834	      1.72279580	     12.32692906	     12.23841216	     -5.84073704	      0.00000000	     18.79785827	      0.85743472	     -0.77884270	     22.71849910	     10.61908006	     -8.03549174	      0.00000000	    -20.46199144	     -2.82106496	      0.43398959	    -11.74182515	    -19.81987433	     10.50825724	     18.30332837	     74.95533504	     -9.11887980	    -20.67618989	    -11.06325005	     36.99937885	     70.02601112
      1.35000000	    -12.74913464	      3.79258996	     -8.32477164	     -0.03319383	      1.21227943	     -0.07376850	     17.48949550	     -0.37410685	      1.91913265	     15.86232226	     13.83510354	     -6.63580937	      0.00000000	     21.70655681	      0.59146201	     -2.11811768	     27.15433458	     12.08332814	     -8.35380749	      0.00000000	    -22.93202106	     -2.84294801	      0.39419720	     -9.93045641	    -19.30556272	     11.18965232	     18.49681444	     74.47513776	     -7.27677932	    -20.57314638	    -10.83691919	     37.96012228	     69.91841944
      1.36666670	    -13.01062855	      3.82095608	     -8.19031754	     -0.03609442	      1.19798765	     -0.07508121	     20.02785061	     -0.36608950	      2.41282607	     20.23886730	     16.18873013	     -7.61296984	      0.00000000	     24.78814613	      0.25337178	     -3.50914974	     31.72266463	     14.60978684	     -7.97006912	      0.00000000	    -25.43386322	     -2.86251792	      0.21804662	     -7.52192679	    -18.89653052	     11.81819591	     18.59987714	     74.02731539	     -5.38895587	    -20.56500879	    -10.10182039	     39.30648095	     69.99778633
      1.38333330	    -13.30255489	      3.70514946	     -8.11254620	     -0.03871278	      1.18853859	     -0.07653867	     22.98099846	     -0.24372690	      2.70684382	     25.38379289	     18.43052702	     -8.84008812	      0.00000000	     27.75112190	     -0.33559968	     -4.73210885	     36.45317513	     17.04426117	     -7.86176838	      0.00000000	    -27.87343335	     -2.74760971	      0.06914965	     -4.60786615	    -18.39994613	     12.34935626	     19.16076189	     73.66046213	     -3.09989959	    -20.43323321	     -9.25015192	     40.53032118	     70.19168312
      1.40000000	    -13.38356257	      3.57838653	     -8.06793766	     -0.03187146	      1.17254763	     -0.07961437	     25.57401767	     -0.23112265	      2.97615379	     30.86465641	     21.53003508	     -8.95951751	      0.00000000	     30.23828551	     -0.96457384	     -5.76975882	     41.29574969	     20.01860876	     -7.38532088	      0.00000000	    -29.99699467	     -2.46427079	      0.05018991	     -1.81402921	    -18.05253609	     12.80933373	     19.84200912	     73.33765842	     -0.99251275	    -19.93173416	     -8.27252159	     41.72822916	     70.49562996
      1.41666670	    -13.78207358	      3.51623089	     -8.00020000	     -0.03095453	      1.15497500	     -0.08270635	     28.73840465	     -0.29649228	      3.19407019	     36.77487511	     25.31211065	     -8.28552637	      0.00000000	     32.96693175	     -1.54472908	     -6.61356486	     46.22411096	     23.60467168	     -6.31605341	      0.00000000	    -31.63050380	     -2.20488087	      0.00473268	      1.11750543	    -17.67163287	     13.08929400	     20.94556661	     73.09006455	      1.14321476	    -19.36798512	     -7.28604261	     42.94229129	     70.90490365
      1.43333330	    -14.30188614	      3.45083116	     -8.07347066	     -0.02746112	      1.14557776	     -0.08357769	     31.67438783	     -0.36691139	      3.17517912	     42.18719772	     28.60451246	     -6.75226498	      0.00000000	     35.43708270	     -2.09403562	     -6.99611406	     50.41214722	     27.04670835	     -4.62914664	      0.00000000	    -32.87728285	     -1.93090341	     -0.18120024	      4.77544485	    -17.03092101	     13.31664460	     22.28101675	     72.98449256	      3.72908149	    -18.66403605	     -6.04605886	     43.61567638	     71.43897964
